<svg class="svg-icon" style="width: 18px; height: 18px;vertical-align: middle;fill: #F59256;overflow: hidden;" viewBox="0 0 1024 1024" version="1.1" xmlns="http://www.w3.org/2000/svg"><path d="M768.8 702.2c-8 0-16-3.2-22.4-9.6-12.8-12.8-12.8-32 0-44.7l137.4-137.4-137.3-137.4c-12.8-12.8-12.8-32 0-44.7s32-12.8 44.7 0L951 488.1c12.8 12.8 12.8 32 0 44.7L791.2 692.6c-6.4 6.4-14.4 9.6-22.4 9.6zM321.5 510.5c0-17.6 14.4-32 32-32h559.2c17.6 0 32 14.4 32 32s-14.4 32-32 32H353.5c-17.6-0.1-32-14.4-32-32zM65.9 830V191c0-52.7 43.1-95.9 95.9-95.9h351.5c52.7 0 95.9 43.1 95.9 95.9v127.8c0 17.6-14.4 32-32 32s-32-14.4-32-32V191c0-17.6-14.4-32-32-32H161.7c-17.6 0-32 14.4-32 32v639c0 17.6 14.4 32 32 32h351.5c17.6 0 32-14.4 32-32V702.2c0-17.6 14.4-32 32-32s32 14.4 32 32V830c0 52.7-43.1 95.9-95.9 95.9H161.7c-52.7 0-95.8-43.1-95.8-95.9z"  /></svg>
